<svg viewBox="0 0 299.31 571.12" xmlns="http://www.w3.org/2000/svg"><g fill="#385868"><rect height="42.53" rx="1.49" transform="matrix(0 1 -1 0 240.82 -231.52)" width="9.3" x="231.52" y="-16.62"/><rect height="18.9" rx="1.49" width="9.45" x="1.91" y="69.75"/><rect height="9.45" rx=".84" width="9.45" x="1.91" y="104.41"/><rect height="9.45" rx=".84" width="9.45" x="1.91" y="126.46"/></g><path d="m21.91 18.34h257.27a11.46 11.46 0 0 1 11.46 11.46v524.52a13.24 13.24 0 0 1 -13.24 13.24h-255.49a13.24 13.24 0 0 1 -13.24-13.24v-522.75a13.24 13.24 0 0 1 13.24-13.23z" fill="#fff"/><path d="m29.35 567.56h243.5a26.54 26.54 0 0 0 26.46-26.46v-20.8a37.92 37.92 0 0 1 -37.81 37.81h-223.69a37.92 37.92 0 0 1 -37.81-37.81v17.91a29.43 29.43 0 0 0 29.35 29.35z" opacity=".04"/><path d="m265.07 8.83h-220.85c-20.08 0-36.51 19.85-36.51 44.11v9.87c0-23.75 16.08-43.19 35.74-43.19h211.46c19.66 0 35.74 19.43 35.74 43.19v-23.08c-.01-17-11.52-30.9-25.58-30.9z" opacity=".1"/><path d="m262.11 571.12h-224.91a32.13 32.13 0 0 1 -32.1-32.12v-493.44a41.54 41.54 0 0 1 41.5-41.49h215.51a32.13 32.13 0 0 1 32.1 32.1v502.83a32.13 32.13 0 0 1 -32.1 32.12zm-215.51-559.92a34.4 34.4 0 0 0 -34.36 34.36v493.44a25 25 0 0 0 25 25h224.87a25 25 0 0 0 25-25v-502.83a25 25 0 0 0 -25-25z" fill="#385868"/><path d="m126.67 49.6h47.26a1.78 1.78 0 0 0 0-3.57h-47.26a1.78 1.78 0 0 0 0 3.57z" fill="#385868"/><circle cx="150.3" cy="32.06" fill="#385868" r="3.15"/><path d="m22.03 75.4h255.26v416.54h-255.26z" fill="#215968"/><path d="m30.19 87.29h238.94v395.2h-238.94z" fill="#347888"/><path d="m149.66 551.42a24.82 24.82 0 1 1 24.82-24.82 24.85 24.85 0 0 1 -24.82 24.82zm0-47.26a22.44 22.44 0 1 0 22.44 22.44 22.47 22.47 0 0 0 -22.44-22.44z" fill="#347888"/></svg>